HIERARCHY
ROOT Hips
{
  OFFSET 196.326 95.9168 97.7182
  CHANNELS 6 Xposition Yposition Zposition Zrotation Xrotation Yrotation
  JOINT LeftUpLeg
  {
    OFFSET 8.64259 1.95398 -2.38835
    CHANNELS 3 Zrotation Xrotation Yrotation
    JOINT LeftLeg
    {
      OFFSET 43.7702 0 0
      CHANNELS 3 Zrotation Xrotation Yrotation
      JOINT LeftFoot
      {
        OFFSET 40.6238 0 0
        CHANNELS 3 Zrotation Xrotation Yrotation
        JOINT LeftToeBase
        {
          OFFSET 12.7242 0 0
          CHANNELS 3 Zrotation Xrotation Yrotation
          End Site
          {
            OFFSET 0 0 0
          }
        }
      }
    }
  }
  JOINT RightUpLeg
  {
    OFFSET -8.2249 1.95398 -2.59336
    CHANNELS 3 Zrotation Xrotation Yrotation
    JOINT RightLeg
    {
      OFFSET 43.5653 0 0
      CHANNELS 3 Zrotation Xrotation Yrotation
      JOINT RightFoot
      {
        OFFSET 40.6238 0 0
        CHANNELS 3 Zrotation Xrotation Yrotation
        JOINT RightToeBase
        {
          OFFSET 12.7242 0 0
          CHANNELS 3 Zrotation Xrotation Yrotation
          End Site
          {
            OFFSET 0 0 0
          }
        }
      }
    }
  }
  JOINT Spine
  {
    OFFSET 0.165834 0.87714 6.61349
    CHANNELS 3 Zrotation Xrotation Yrotation
    JOINT Spine1
    {
      OFFSET 7.38963 1.71661e-005 0
      CHANNELS 3 Zrotation Xrotation Yrotation
      JOINT Spine2
      {
        OFFSET 11.9445 1.14441e-005 0
        CHANNELS 3 Zrotation Xrotation Yrotation
        JOINT Spine3
        {
          OFFSET 14.7254 4.19617e-005 0
          CHANNELS 3 Zrotation Xrotation Yrotation
          JOINT Spine4
          {
            OFFSET 10.9679 0 0
            CHANNELS 3 Zrotation Xrotation Yrotation
            JOINT RightShoulder
            {
              OFFSET 2.46616 -1.6653 3.69651
              CHANNELS 3 Zrotation Xrotation Yrotation
              JOINT RightArm
              {
                OFFSET 13.0012 0 0
                CHANNELS 3 Zrotation Xrotation Yrotation
                JOINT RightForeArm
                {
                  OFFSET 28.7848 1.52588e-005 0
                  CHANNELS 3 Zrotation Xrotation Yrotation
                  JOINT RightHand
                  {
                    OFFSET 26.5688 1.52588e-005 0
                    CHANNELS 3 Zrotation Xrotation Yrotation
                    End Site
                    {
                      OFFSET 0 0 0
                    }
                  }
                }
              }
            }
            JOINT LeftShoulder
            {
              OFFSET 2.38034 -1.29275 -3.75231
              CHANNELS 3 Zrotation Xrotation Yrotation
              JOINT LeftArm
              {
                OFFSET 16.3182 6.10351e-005 0
                CHANNELS 3 Zrotation Xrotation Yrotation
                JOINT LeftForeArm
                {
                  OFFSET 27.0901 0 0
                  CHANNELS 3 Zrotation Xrotation Yrotation
                  JOINT LeftHand
                  {
                    OFFSET 24.5451 1.52588e-005 0
                    CHANNELS 3 Zrotation Xrotation Yrotation
                    End Site
                    {
                      OFFSET 0 0 0
                    }
                  }
                }
              }
            }
            JOINT Neck
            {
              OFFSET 5.0226 -0.0266342 0
              CHANNELS 3 Zrotation Xrotation Yrotation
              JOINT Head
              {
                OFFSET 6.69363 2.86102e-005 0
                CHANNELS 3 Zrotation Xrotation Yrotation
                End Site
                {
                  OFFSET 0 0 0
                }
              }
            }
          }
        }
      }
    }
  }
}
MOTION
Frames:	14
Frame Time:	0.0416667
-6.60175 94.507 100.607 -3.70551 -84.8514 -4.93905 -173.22 4.45316 85.9795 -18.4981 15.4313 -1.69198 65.4387 12.2396 17.5927 49.0261 16.1779 -27.8634 179.77 29.8123 89.787 -23.7664 12.994 0.118912 62.7658 -2.28971 -1.27359 45.1601 2.24448 14.9955 -0.701023 7.20728 -89.8337 12.4628 -1.3137 0.483033 0.792386 -1.29117 0.540387 -21.7481 -1.39813 0.0658086 -1.73545 -1.39813 0.0658079 79.2954 -52.8371 -115.801 27.9312 -9.81622 17.6891 -7.74829 -16.4503 -38.9729 -5.99597 -0.571269 4.1963 -102.433 -40.0018 56.0818 -21.8292 8.55847 2.33704 7.92009 6.89002 -46.804 15.7575 1.44117 5.20428 10.1661 2.5464 -2.29178 -1.26003 3.23341 4.62812 
-6.84481 93.5102 106.97 16.2107 -84.6618 14.6312 -172.743 0.465452 86.556 -18.6163 18.5662 -1.7288 64.6926 12.8367 19.6395 54.7302 20.0807 -27.5389 -178.273 28.567 88.459 -7.95453 11.0757 -0.829602 62.6458 -1.57645 -0.832522 53.7072 3.7195 13.732 -0.971195 7.26713 -89.8329 12.3454 -1.85061 0.543324 0.675662 -1.82491 0.624261 -21.8701 -1.92832 -0.0381855 -1.85744 -1.92832 -0.0381943 79.5967 -53.4375 -115.139 28.0289 -9.53698 18.9671 -7.49002 -17.2295 -38.0022 -5.48023 -0.559892 4.76124 -102.401 -39.6319 55.9515 -19.5595 7.40204 1.01269 9.07683 6.87977 -49.2026 16.9308 1.37303 4.22021 11.1064 2.32987 -3.1918 -1.32856 3.29325 5.60955 
-7.17482 92.3275 113.732 39.2571 -83.3356 37.6819 -172.975 -2.12184 87.8088 -21.3595 22.9088 -0.775112 62.0404 10.5957 19.5029 63.8028 27.0485 -25.2465 -178.34 29.8291 87.5823 -6.51484 11.0765 -0.687307 64.7684 -1.56185 -0.815543 57.4545 4.34723 13.3516 -1.28365 7.26322 -89.9187 12.3555 -2.51223 0.446781 0.686907 -2.49013 0.556972 -21.8677 -2.5303 -0.329401 -1.85502 -2.53029 -0.329408 79.574 -54.1916 -114.887 27.4703 -8.77953 20.2366 -7.86431 -17.2111 -37.3414 -4.09509 -0.47051 5.01804 -103.136 -40.0023 54.9783 -18.3749 6.55857 0.862233 8.41824 5.36197 -50.5886 17.6807 1.57968 5.05887 11.4421 2.0763 -3.29371 -1.22957 3.09357 5.82849 
-7.73339 91.1727 120.971 54.3495 -83.9432 54.6683 -172.78 -3.96912 91.2419 -28.0223 25.6932 0.819732 59.2403 7.17332 17.286 72.3625 33.7358 -23.8934 -178.945 31.0859 89.7707 -16.8811 11.569 -0.0867797 61.8373 -1.08234 -0.501538 53.0959 3.67868 13.9373 -1.33023 7.40505 -90.1882 12.0658 -2.73336 -0.0761103 0.397699 -2.73406 0.0443554 -22.1587 -2.58403 -0.894618 -2.14604 -2.58403 -0.894626 79.1925 -54.4386 -115.332 26.989 -8.22188 20.8444 -6.69912 -17.3373 -35.2281 -2.81302 -0.3751 4.92663 -103.567 -40.5077 54.559 -19.1197 5.51103 1.44614 9.21253 6.09756 -49.9808 17.1486 1.58889 5.3666 11.7339 2.27509 -2.76998 -1.74219 3.14814 5.96271 
-8.00669 90.3466 128.408 50.8873 -85.8448 54.3592 -172.238 -3.23142 95.3707 -36.0034 23.7604 1.57929 49.447 -3.45198 7.39756 86.1208 45.1138 -21.8652 -179.989 33.1792 93.819 -29.7721 10.9091 1.02811 59.6296 -0.60045 -0.208165 44.1977 2.15234 16.7251 -1.15923 7.46548 -90.6043 11.9353 -2.58973 -0.926004 0.266743 -2.62798 -0.811067 -22.2818 -2.19169 -1.66176 -2.26911 -2.19169 -1.66176 78.8527 -53.361 -116.228 26.7627 -7.8352 19.6793 -5.95454 -18.0888 -32.887 -2.1313 -0.331942 5.48685 -104.216 -41.4816 54.0433 -21.3161 4.93255 3.23212 7.97949 5.44124 -47.35 18.1385 1.68281 5.40567 11.39 3.09967 -1.55183 -2.29328 3.61768 5.70348 
-8.81171 90.1318 135.173 53.3203 -87.3401 56.9289 -172.822 1.96288 96.2873 -47.3307 23.3365 1.25569 38.4301 -11.3758 3.0468 50.0619 24.3938 3.38317 179.377 31.9643 95.6982 -37.8925 10.3251 0.894866 65.3589 -1.72609 -0.907155 36.45 0.564505 19.8656 -0.996272 7.46501 -90.5665 11.936 -2.24781 -0.887149 0.266711 -2.28468 -0.787327 -22.2777 -1.87728 -1.52184 -2.26503 -1.87727 -1.52184 79.3896 -52.211 -115.909 27.9069 -7.54435 18.154 -6.44441 -17.2677 -33.8511 -1.74267 -0.29861 5.97879 -104.611 -42.0493 53.7231 -23.1553 6.60573 4.89965 6.11033 5.19301 -43.3478 16.8423 1.5108 5.06928 10.9115 3.10951 -0.715746 -2.92743 3.35957 4.62712 
-9.18939 91.2155 141.676 50.2424 -88.375 54.4958 -173.106 10.6955 96.2538 -57.5899 17.0875 1.20253 44.2925 -6.67668 6.20597 49.9743 23.0131 -0.97644 179.64 26.6428 97.1819 -37.3259 10.4044 0.686533 68.7233 -2.70315 -1.42532 31.9934 -0.509968 20.0967 -0.682662 7.50576 -90.5573 11.8566 -1.61973 -0.938203 0.186391 -1.65944 -0.866006 -22.3515 -1.2629 -1.38164 -2.33886 -1.2629 -1.38164 79.4114 -51.6799 -116.087 28.134 -7.73658 15.923 -6.44926 -15.354 -36.2296 -4.14141 -0.450015 4.62113 -105.288 -42.7684 53.0591 -24.2439 7.85788 5.605 5.56845 6.8154 -39.2555 14.3551 1.19315 4.35025 11.1034 2.55189 0.232648 -3.29374 2.53426 3.21499 
-9.83216 92.6464 148.158 -22.8753 -88.5822 -20.4867 -172.312 17.5122 93.5025 -56.3175 15.625 -0.0109401 48.7035 -2.93695 9.71308 56.6042 28.4512 -4.92001 -179.147 21.5021 96.7527 -34.8766 10.4276 -1.07847 70.5087 -3.11675 -1.61679 31.6784 -0.618808 21.0238 -0.356303 7.43932 -90.2798 11.9936 -0.840398 -0.467468 0.322825 -0.860155 -0.430035 -22.2131 -0.661059 -0.698434 -2.20049 -0.661051 -0.698439 79.4778 -50.6596 -116.397 27.7867 -8.73852 13.2776 -7.70485 -14.5281 -40.6269 -6.21879 -0.577332 4.21515 -104.893 -42.9951 53.7659 -27.215 7.92763 6.65997 4.8603 7.62586 -35.3829 13.9262 1.14397 4.23789 10.2823 2.56561 0.79701 -2.52922 2.43368 2.86938 
-10.2717 93.82 154.419 -54.2001 -86.8081 -52.5751 -171.681 22.553 91.6104 -47.3603 14.2591 -1.08284 54.4233 2.0373 12.7181 56.0672 29.3378 -1.12864 -178.537 15.9357 96.6198 -30.7752 9.02423 -1.94744 71.0767 -3.27276 -1.68339 33.178 -0.246719 21.0408 0.00024562 7.33964 -90.106 12.1944 -0.049656 -0.206068 0.523433 -0.0586794 -0.203689 -22.0115 0.0145668 -0.211467 -1.99886 0.0145659 -0.211473 79.3614 -50.3663 -116.685 26.2977 -9.45391 10.8983 -10.0002 -14.13 -46.133 -7.64696 -0.623773 3.30655 -104.241 -42.8786 54.6947 -30.3401 8.04926 8.44232 3.46574 6.70499 -32.1561 12.9141 1.04178 4.05044 9.17442 2.40869 1.32892 -1.63191 2.1569 1.9909 
-10.4516 94.4592 160.738 -55.7436 -85.5456 -54.8465 -171.968 24.8657 90.1705 -31.9124 8.83934 -1.40151 57.5421 4.9366 13.7265 60.5287 32.8978 -3.45101 -179.012 10.4167 95.6917 -26.8859 7.20425 -1.94324 71.8266 -3.48532 -1.76679 35.4626 0.329779 19.5631 0.214434 7.29061 -89.9497 12.2926 0.450046 0.0496504 0.621772 0.451793 0.0297821 -21.9139 0.414316 0.182611 -1.90129 0.414316 0.182611 79.9277 -49.4836 -116.207 24.6943 -10.2623 7.52101 -11.8692 -13.1495 -50.9301 -8.82953 -0.726804 3.80097 -103.829 -42.7742 55.2688 -32.6511 8.33163 10.6566 2.82489 6.32942 -30.8578 11.1252 0.868213 3.7186 9.74012 2.52789 1.04395 -1.70939 2.34167 2.29614 
-10.1666 94.3608 166.873 -59.6623 -83.1592 -58.4975 -172.789 26.0142 90.6908 -14.3524 4.6997 -1.17627 59.218 6.31539 13.6469 60.9059 33.7135 -2.45395 -179.941 5.71964 94.9841 -23.7992 4.43701 -1.45683 72.5897 -3.90539 -1.94395 37.2287 0.743333 19.3515 0.532523 7.20707 -89.9481 12.4603 1.08276 -0.0205966 0.789847 1.0808 -0.0682447 -21.7487 1.03888 0.305799 -1.73608 1.03889 0.305807 80.4652 -48.4557 -115.819 22.0551 -11.4469 3.74434 -11.6531 -11.169 -53.8793 -10.2261 -0.76869 3.2494 -103.846 -43.0872 55.3929 -34.5369 8.99568 12.3536 2.82927 7.9729 -29.8529 10.5471 0.80971 3.56967 10.7738 2.96829 1.1707 -2.04342 2.73717 2.63355 
-9.76907 93.4703 173.278 -63.9203 -80.436 -61.6679 -174.425 29.4145 92.8376 -5.51117 7.61321 -0.38409 62.3133 8.23174 16.1627 61.6285 35.2373 -0.73077 179.663 1.49902 94.9652 -22.0246 2.17744 -1.48032 74.2796 -5.00755 -2.42208 39.8802 1.33011 18.2595 0.843336 7.12258 -90.0058 12.6313 1.67244 -0.207907 0.96145 1.66167 -0.281337 -21.5822 1.65757 0.304481 -1.56953 1.65759 0.304491 80.2312 -47.7511 -116.46 19.0434 -11.6576 0.102766 -13.1267 -11.4351 -55.7629 -9.21263 -0.738981 3.66286 -103.149 -43.3436 56.5711 -36.1624 9.18699 13.846 2.91467 8.99136 -29.348 9.13869 0.69846 3.43651 11.4844 3.26426 0.928188 -2.50278 3.06399 2.62853 
-9.53074 92.1561 179.731 -72.0592 -77.5741 -69.7846 -174.581 31.7229 94.2536 -5.01915 7.49454 -0.0984268 64.5494 9.42607 16.4311 63.9897 37.2994 -1.44078 179.622 -0.896212 94.1453 -25.5157 0.187295 -3.01037 74.7694 -5.57827 -2.67755 45.5325 2.49293 17.1238 1.11232 7.18503 -89.9036 12.5067 2.25581 -0.067915 0.837713 2.25064 -0.167185 -21.7123 2.17188 0.613517 -1.69966 2.17188 0.613513 79.7209 -47.6672 -117.267 16.4347 -11.5159 -3.6549 -14.3099 -12.7721 -55.5519 -10.0144 -0.804265 3.80953 -101.845 -43.7963 58.7577 -36.9472 8.97877 14.5858 3.29639 10.006 -29.1082 8.51174 0.733549 4.25901 12.1976 3.72024 0.360054 -2.42375 3.64256 2.67788 
-8.96558 90.8213 187.153 -79.1369 -76.3158 -78.2519 -173.886 30.8569 93.1136 -9.71695 6.7936 -0.655688 62.9024 9.9867 17.4067 65.9465 36.3249 -7.284 178.956 -2.08733 91.5184 -33.5589 -2.27554 -5.26634 70.7813 -4.2428 -2.17982 54.4366 4.32815 16.5248 1.23589 7.29602 -89.6763 12.2805 2.6097 0.352651 0.612141 2.62269 0.237366 -21.9409 2.383 1.12109 -1.92825 2.38299 1.12109 79.5656 -47.8066 -117.443 15.8959 -11.1749 -4.18003 -14.9931 -13.3431 -55.2358 -10.4333 -0.857847 4.14232 -102.031 -43.9056 58.5235 -37.3373 8.57123 15.1809 3.11348 10.3796 -27.6036 8.43487 0.749868 4.49683 12.1902 3.86902 -0.183196 -2.62075 3.92665 2.98234 
